<svg width="800" height="800" viewBox="0 0 800 800" fill="none" xmlns="http://www.w3.org/2000/svg">
<path d="M683.838 408.838L458.838 633.838C456.494 636.182 453.315 637.499 450 637.499C446.685 637.499 443.506 636.182 441.162 633.838C438.818 631.494 437.501 628.315 437.501 625C437.501 621.685 438.818 618.506 441.162 616.162L644.823 412.5H125C121.685 412.5 118.505 411.183 116.161 408.839C113.817 406.495 112.5 403.315 112.5 400C112.5 396.685 113.817 393.505 116.161 391.161C118.505 388.817 121.685 387.5 125 387.5H644.823L441.162 183.838C438.818 181.494 437.501 178.315 437.501 175C437.501 171.685 438.818 168.506 441.162 166.162C443.506 163.818 446.685 162.501 450 162.501C453.315 162.501 456.494 163.818 458.838 166.162L683.838 391.162C684.999 392.323 685.92 393.7 686.548 395.217C687.177 396.733 687.5 398.359 687.5 400C687.5 401.641 687.177 403.267 686.548 404.783C685.92 406.3 684.999 407.678 683.838 408.838Z" fill="white"/>
</svg>
